<mxfile host="app.diagrams.net" agent="Mozilla/5.0 (Windows NT 10.0; Win64; x64) AppleWebKit/537.36 (KHTML, like Gecko) Chrome/131.0.0.0 Safari/537.36 Edg/131.0.0.0" version="25.0.3">
  <diagram name="第 1 页" id="4UG25Fp_B6W0l5dKrZMW">
    <mxGraphModel dx="1042" dy="565" grid="0" gridSize="10" guides="1" tooltips="1" connect="1" arrows="1" fold="1" page="0" pageScale="1" pageWidth="827" pageHeight="1169" math="0" shadow="0">
      <root>
        <mxCell id="0" />
        <mxCell id="1" parent="0" />
        <mxCell id="oYlRctocb77fKKuBrY3P-28" value="" style="ellipse;whiteSpace=wrap;html=1;aspect=fixed;labelBackgroundColor=#000000;labelBorderColor=default;" parent="1" vertex="1">
          <mxGeometry as="geometry" />
        </mxCell>
        <mxCell id="XmDxt7UtoB2DC7d8sLS8-12" value="" style="endArrow=none;html=1;rounded=0;entryX=1;entryY=0.5;entryDx=0;entryDy=0;strokeWidth=4;" edge="1" parent="1" target="XmDxt7UtoB2DC7d8sLS8-1">
          <mxGeometry width="50" height="50" relative="1" as="geometry">
            <mxPoint x="440" y="320" as="sourcePoint" />
            <mxPoint x="424.5" y="325" as="targetPoint" />
          </mxGeometry>
        </mxCell>
        <mxCell id="XmDxt7UtoB2DC7d8sLS8-9" value="&lt;font&gt;V&lt;sub&gt;P&lt;/sub&gt;&lt;/font&gt;" style="text;html=1;align=center;verticalAlign=middle;resizable=0;points=[];autosize=1;strokeColor=none;fillColor=none;strokeWidth=4;container=0;fontSize=40;" vertex="1" parent="1">
          <mxGeometry x="150" y="240" width="70" height="70" as="geometry" />
        </mxCell>
        <mxCell id="XmDxt7UtoB2DC7d8sLS8-10" value="&lt;font&gt;V&lt;/font&gt;&lt;font&gt;&lt;sub&gt;N&lt;/sub&gt;&lt;/font&gt;" style="text;html=1;align=center;verticalAlign=middle;resizable=0;points=[];autosize=1;strokeColor=none;fillColor=none;strokeWidth=4;container=0;fontSize=40;" vertex="1" parent="1">
          <mxGeometry x="150" y="325" width="70" height="70" as="geometry" />
        </mxCell>
        <mxCell id="XmDxt7UtoB2DC7d8sLS8-1" value="&lt;font style=&quot;font-size: 50px;&quot;&gt;A1&lt;/font&gt;" style="triangle;whiteSpace=wrap;html=1;strokeWidth=6;container=0;" vertex="1" parent="1">
          <mxGeometry x="274.5" y="240" width="120" height="160" as="geometry" />
        </mxCell>
        <mxCell id="XmDxt7UtoB2DC7d8sLS8-2" value="" style="endArrow=none;html=1;rounded=0;exitX=0;exitY=0.25;exitDx=0;exitDy=0;strokeWidth=4;" edge="1" parent="1" source="XmDxt7UtoB2DC7d8sLS8-1">
          <mxGeometry width="50" height="50" relative="1" as="geometry">
            <mxPoint x="314.5" y="360" as="sourcePoint" />
            <mxPoint x="220" y="280" as="targetPoint" />
          </mxGeometry>
        </mxCell>
        <mxCell id="XmDxt7UtoB2DC7d8sLS8-3" value="" style="endArrow=none;html=1;rounded=0;exitX=0;exitY=0.75;exitDx=0;exitDy=0;strokeWidth=4;" edge="1" parent="1" source="XmDxt7UtoB2DC7d8sLS8-1">
          <mxGeometry width="50" height="50" relative="1" as="geometry">
            <mxPoint x="294.5" y="360" as="sourcePoint" />
            <mxPoint x="220" y="360" as="targetPoint" />
          </mxGeometry>
        </mxCell>
        <mxCell id="XmDxt7UtoB2DC7d8sLS8-4" value="&lt;font style=&quot;font-size: 50px;&quot;&gt;+&lt;/font&gt;" style="text;html=1;align=center;verticalAlign=middle;resizable=0;points=[];autosize=1;strokeColor=none;fillColor=none;strokeWidth=4;container=0;" vertex="1" parent="1">
          <mxGeometry x="224.5" y="225" width="50" height="70" as="geometry" />
        </mxCell>
        <mxCell id="XmDxt7UtoB2DC7d8sLS8-5" value="&lt;font style=&quot;font-size: 50px;&quot;&gt;-&lt;/font&gt;" style="text;html=1;align=center;verticalAlign=middle;resizable=0;points=[];autosize=1;strokeColor=none;fillColor=none;strokeWidth=4;container=0;" vertex="1" parent="1">
          <mxGeometry x="229.5" y="345" width="40" height="70" as="geometry" />
        </mxCell>
        <mxCell id="XmDxt7UtoB2DC7d8sLS8-14" value="&lt;font style=&quot;font-size: 40px;&quot;&gt;V&lt;sub style=&quot;&quot;&gt;O&lt;/sub&gt;&lt;/font&gt;" style="text;html=1;align=center;verticalAlign=middle;resizable=0;points=[];autosize=1;strokeColor=none;fillColor=none;strokeWidth=4;container=0;" vertex="1" parent="1">
          <mxGeometry x="440" y="285" width="80" height="70" as="geometry" />
        </mxCell>
      </root>
    </mxGraphModel>
  </diagram>
</mxfile>
